<svg xmlns="http://www.w3.org/2000/svg" viewBox="0 0 800 800"><g transform="translate(-0,800) scale(1,-1)"><path fill="#122e66" fill-rule="evenodd" d="M102.4 487L111.1 464.8L133 474.3L123.5 452.5L145.7 443.7L123.5 435L133 413.1L111.1 422.7L102.4 400.4L93.7 422.7L71.8 413.1L81.3 435L59.1 443.7L81.3 452.5L71.8 474.3L93.7 464.8ZM698.8 487L707.5 464.8L729.4 474.3L719.8 452.5L742.1 443.7L719.8 435L729.4 413.1L707.5 422.7L698.8 400.4L690 422.7L668.2 413.1L677.7 435L655.5 443.7L677.7 452.5L668.2 474.3L690 464.8"/><path fill="#122e66" fill-rule="evenodd" d="M464.4 736.6C464 736.5 463.6 736.3 463.3 736.1C462.9 735.7 462.9 735 463.2 734.1C463.6 731.4 463.6 728.8 463.2 726.2C463.1 724.1 462.7 721.3 461.8 717.8C458.6 705.9 455.7 696.7 452.9 690.2C450.6 683.9 447.6 677.8 443.7 672.2C442.4 670.4 441.7 668.7 441.6 667C441.6 664.1 441.8 662.1 442.4 660.8C443 659.5 443.8 659.3 444.9 660.1C446.3 660.9 447.5 662.4 448.6 664.6C451.1 669.2 453.2 674.2 454.8 679.4C456.8 685.8 458.8 692.2 460.7 698.6C461.3 700.4 461.8 702.2 462.3 703.9C462.6 703.8 462.8 703.7 463.2 703.7C465.8 703.6 469.9 703.1 475.5 701.9C475.5 701.6 475.7 701 476 700.3C476.9 697.6 478.4 697 480.4 698.5C481.9 699.6 482.9 700.8 483.4 702.3C484.7 705.9 486.1 709.8 487.6 713.7C488.9 717.1 490.6 719.7 492.7 721.7C494 722.7 494.3 723.9 493.6 725.3C492.6 726.7 491.1 728.3 489.3 730.1C488.3 730.9 487.2 731.1 485.9 730.9C481 730.5 475.8 730.6 470.5 731.1C470.4 731.2 470.3 731.4 470.1 731.6C468.8 733.6 467.1 735.2 465.3 736.3C465 736.5 464.7 736.6 464.4 736.6ZM505.9 730.2C505.7 730.2 505.5 730.2 505.3 730.1C504.7 729.9 504.6 729.3 504.8 728.3C505.3 725.5 505.2 722.5 504.6 719.3C503.5 714.7 502.2 710 500.6 705.3C499.9 703.1 499.7 700.8 499.9 698.4C500.1 696.6 500.5 695.4 501.1 694.8C502.1 694 503 694.5 503.9 696.5C503.9 696.7 504 696.9 504 697C504.5 696.8 505.2 696.6 506.1 696.4C509.5 696.1 514.9 695.1 522.1 693.1C517.5 676.1 513.1 661.8 509.1 650.4C508.4 648.5 507.7 647.2 507 646.5C506.4 646.2 505.5 646.4 504.2 647.2C502.4 648.2 500.7 649.2 498.9 650.2C497.5 651.2 496.7 651.3 496.6 650.5C499.6 645.7 501.9 641.5 503.4 638.2C503.9 636.4 504.7 635.2 505.8 634.5C506.5 634.1 507.1 634.1 507.9 634.6C509.2 635.4 510.8 636.8 512.7 638.7C514.2 640.4 515.3 642.5 515.8 644.9C519.3 660.7 524.7 681.1 531.8 706.3C533 710.7 534.3 713.7 535.9 715.4C537.2 716.5 537.6 717.7 536.9 718.8C535.7 720.6 533.9 722.5 531.3 724.4C530.1 725.3 528.9 725.7 527.6 725.5C524.3 724.8 521.7 724.5 519.9 724.5C517.7 724.6 514.7 724.9 510.7 725.4C509.5 727.2 508.1 728.7 506.5 729.8C506.3 730 506.1 730.1 505.9 730.2ZM471.9 727.9C474.7 727.8 477.1 727.7 479.1 727.6C481.9 727.4 483.7 726.9 484.6 726.1C485.1 725.5 485 724.1 484.3 722C482.2 716 480.3 710.5 478.4 705.6C478.1 704.9 477.8 704.3 477.4 703.9C477 704.6 476.4 705.3 475.5 706.2C474.6 707 473 707.4 470.8 707.4C468.2 707.4 465.7 707.4 463.3 707.4C464.2 710.2 465 712.8 465.9 714.9C469.6 714.6 472.8 714.2 475.6 713.8C477.3 713.8 477.9 714.3 477.4 715.3C476.9 716.4 475.9 717.4 474.1 718.1C472.6 718.6 470.3 718.8 467.3 718.7C467.3 718.6 467.2 718.6 467.1 718.5C468.7 723 469.9 726.1 470.8 727.9C471.1 727.9 471.5 727.9 471.9 727.9ZM273.2 723.1C271.8 723 270.7 722.5 269.8 721.8C268.3 720.6 268.5 719.5 270.4 718.6C273.6 717.1 275.7 715 276.6 712.4C279.6 703.7 282 696 283.6 689.2C276.7 685.3 269.3 681.2 261.5 676.9C259.9 676 260 675.2 261.8 674.4C263.2 673.8 264.7 673.6 266.3 673.7C268.1 673.9 269.5 674.5 270.5 675.2C274.7 678.4 279.5 681.5 284.7 684.4C284.8 683.7 285 683 285.1 682.3C286.7 674.7 286.9 667.8 285.8 661.6C285.2 657.1 283.8 652.5 281.4 647.9C279.3 643.4 275.4 637.7 269.7 630.8C268.8 629.9 268.3 629.3 268.2 628.8C268 628.2 268.6 628 270 628.4C271.1 628.8 273.6 630.7 277.4 634C280.2 636.4 283.2 640.1 286.6 645.2C289.1 649.2 290.8 653.3 291.9 657.7C293.1 662.6 293.4 668.5 292.8 675.1C292.6 676.3 292.5 677.6 292.4 678.9C294.8 676.6 299.9 672.4 307.9 666.4C316.6 659.8 323.9 654.9 329.9 651.6C332.7 649.9 335 649.4 337 650C342.6 652.5 348 654.7 352.9 656.7C355.1 657.5 356.1 658.2 355.9 658.8C355.8 659.5 354.3 659.9 351.6 660.3C348.1 660.6 344.4 660.8 340.6 661.1C335.9 661.2 332.2 661.8 329.2 662.9C325.2 664.1 319.4 666.9 311.8 671.2C303.2 675.9 296.5 680 291.6 683.5C291.4 684.9 291.2 686.3 290.9 687.8C297.3 691.3 306.1 695.3 317 699.7C318.7 700.3 320.3 700.9 321.8 701.5C323.4 702.1 324.1 702.7 324.2 703.6C324.2 704.6 323.4 705.4 321.8 706C318.9 706.8 316.5 707.1 314.6 707C313 706.9 311.5 706.4 310.1 705.4C305.2 702.2 298.4 698 289.9 692.9C289.1 695.8 288.4 698.7 287.5 701.5C286.8 703.9 286.2 706.1 285.7 708.1C284.7 711.4 284.1 715.2 284.1 719.4C284.1 720.5 283.7 721.2 282.7 721.7C280.7 722.5 278 722.9 274.7 723.1C274.2 723.1 273.6 723.2 273.2 723.1ZM511.1 721.6C511.6 721.5 512.3 721.5 513.1 721.5C517 721.1 520.9 720.9 524.8 720.8C526.5 720.6 527.3 720.1 527.5 719.2C527.6 717.3 527.5 715 527 712.3C525.7 706.8 524.3 701.4 522.8 696.3C522.5 696.7 522.1 697.2 521.6 697.8C520.7 698.8 519.1 699.4 516.7 699.6C512.5 699.8 508.7 700.1 505.2 700.6C505.4 701.6 505.6 702.6 505.8 703.7C506.3 705.5 506.8 707.3 507.3 709.3C507.4 709.3 507.6 709.2 508 709.1C512.4 708.4 516.2 707.8 519.4 707.3C521.1 707.1 521.8 707.6 521.4 708.6C521 709.8 520 710.7 518.3 711.5C516.8 712.1 514.5 712.5 511.5 712.5C510.3 712.4 509.2 712.2 508.2 712.1C509.2 715.6 510.1 718.8 511.1 721.6ZM652.9 627.4C652.3 627.5 651.8 627.1 651.3 626.4C650.4 623.8 648.2 621.4 644.7 619.1C630.6 610.4 619.3 604.8 611 602.3L610.1 602C602.1 599.8 592.4 598.4 581 597.8C580.4 597.8 579.8 597.8 579.3 597.6C578.6 597.3 578.5 596.8 579.2 596.3C580.9 594.5 587.1 594 597.8 594.6C600.2 594.9 602.8 595.2 605.5 595.6C617.4 598.1 629.7 603.1 642.2 610.5C645.9 612.7 649.9 614.7 654.3 616.4C655 614.3 657.6 610.9 662.2 606.2C667.6 601 673.1 595.6 678.6 590C681.9 587 683.9 585.4 684.7 585.1C685.5 584.9 686 585.1 686.3 585.7C686.7 586.5 686.5 587.7 685.9 589.4C685.1 591.2 682 594.2 676.5 598.4C667.7 606.2 660.9 612.9 656.2 618.7C656.1 618.9 655.9 619.1 655.6 619.2C655.8 623.4 655.2 626.1 653.6 627.2C653.4 627.3 653.1 627.4 652.9 627.4ZM136.8 626.5C135.6 626.7 133.2 625.7 129.4 623.5C128.4 622.8 127.7 622 127.4 621.1C126.1 617.6 124.6 613.8 122.7 609.8C122 608.6 122.1 608 123.2 607.9C124.2 608.2 125.3 608.7 126.3 609.5C127.5 610.4 128.2 611.5 128.5 612.8C129.1 614.3 129.7 616 130.3 617.7C130.4 618.1 130.6 618.4 130.9 618.4C131.6 618.8 132.6 618.4 134 617.4C135.2 616.3 136.5 615.1 137.7 613.8C137 613.7 136.3 613.3 135.6 612.6C134.6 611.5 133.6 609.8 132.7 607.2C132.3 605.7 132 604.3 131.6 602.9C131.1 602 131.6 601.7 133.2 602.1C133.6 602.2 134 602.6 134.4 603.3C136.4 606.7 138.1 609.6 139.5 612.1C140.8 610.7 142.4 609.1 144.1 607.4C143.5 607.1 143 606.7 142.5 606.2C141.6 605.1 140.7 603.2 139.9 600.6C139.6 599 139.2 597.5 139 596.1C138.7 595.1 139.2 594.9 140.6 595.5C141 595.6 141.4 596.1 141.8 596.9C143.5 600.1 144.8 602.9 146 605.3C147.8 603.4 149.8 601.3 152 599.1C151.2 597.7 150.5 596.1 149.9 594.5C146.4 587.4 142.2 578.2 137.2 566.8C137 566.5 137 566.3 136.9 566C133.6 567.2 130.6 568.2 127.9 569.3C128 569.3 128 569.4 128 569.4C129.3 572.6 130.5 575.5 131.6 578C132 579.4 131.7 580 130.7 579.9C129.7 579.7 128.6 579 127.6 577.8C126.7 576.6 126.1 574.7 125.5 572.1C125.4 571.3 125.4 570.7 125.5 570.2C124.1 570.7 122.9 571.2 121.8 571.7C120.9 572 120.1 572.3 119.4 572.7C120.6 576.5 121.6 579.8 122.6 582.5C123 583.8 122.8 584.5 121.8 584.3C120.8 584.1 119.9 583.4 119 582.2C118.2 581 117.6 579.3 117.3 576.8C117.1 575.8 117 574.7 116.9 573.7C115.7 574.4 114.8 574.8 114.3 575.1C113.6 575.5 112.9 575.7 112.3 575.6C112.3 577.3 112.3 578.8 112.2 579.9C112.1 581.1 112.1 582.3 112.1 583.6C111.7 584.9 111.6 586.3 111.8 587.8C112 589 111.5 589.7 110.3 589.8C109.1 589.6 107.7 589.1 106.3 588.1C104.9 587.3 104.1 586.6 103.9 585.8C103.6 585.2 103.8 584.8 104.6 584.6C105.6 584.3 106.4 583.5 107 582.2C107.7 581.1 108.3 580 108.9 578.7C109.3 577.5 109.8 576.4 110.3 575.2C108.6 574.3 107.2 573.1 106.1 571.7C105.4 571 105.1 570.2 105.3 569.5C105.5 568.8 106.1 568.5 107.2 568.6C110.1 568.8 112.9 568.7 115.8 568.3C118.4 567.7 124.9 565.7 135.2 562.2C133.7 559.3 132.3 556.5 131 553.8C130.8 553.6 130.8 553.4 130.9 553.1C130.7 553.1 130.6 553.2 130.4 553.3C128.6 553.5 127.2 553.4 126.2 553C124.8 552.4 124.8 551.7 126.3 550.6C126.7 550.4 127.2 550.2 127.7 549.8C128.9 549 129.7 548.1 130.2 547.1C131.1 545.1 131.9 542.8 132.6 540.1C132.9 539.2 133.8 538.4 135.2 537.8C137.1 537.1 138.7 536.7 140 536.7C142.1 536.5 142.7 537.6 141.8 539.8C141 541.6 139.6 543.5 137.8 545.6C135.7 548.1 134 550.2 132.9 551.8C135.4 552.7 137 554.4 137.8 556.7C139.5 562.5 141.5 568.2 143.9 573.9C146.6 580.2 150.3 588.3 155 598C157.9 604 159.9 607.6 161.1 608.8C162.3 609.5 163.1 609.7 163.5 609.3C163.8 609.2 164.2 608.7 164.7 607.9C165.8 606.1 167 604.4 168.2 602.5C168.8 601.6 169.2 601.2 169.7 601.5C170.2 601.7 170.5 602.6 170.5 604.1C170.7 608.7 171.3 612.6 172.4 615.8C173.3 618.5 173.4 619.9 172.9 620.2C172.2 620.5 168.7 619.5 162.4 617.2C160.6 616.6 159.3 615.5 158.5 613.8C157.1 611 155.7 608 154.4 604.8C145.9 613.3 140.5 619.9 138.3 624.6C138.2 625.6 137.6 626.2 136.8 626.5ZM649.5 609.4C649.2 609.3 649.1 608.9 649 608.3C648.9 605.9 649.9 603.9 652 602.3C653.5 601.3 655.1 600 656.7 598.4C655.5 597.2 652.8 596.1 648.7 594.9C647.6 596.4 646.4 597.8 645.2 599.1C645.2 600.2 645 601.3 644.5 602.3C644.3 602.7 644 602.9 643.5 602.9C643.2 602.8 642.9 602.4 642.6 601.9C639.4 597 634.5 593.2 627.8 590.5C626.6 590 625.6 589.4 625 588.6C624 587.3 623.4 586.1 623.3 585.3C623 584.5 623.3 584.1 624.2 584.1C624.5 584 625 584.1 625.6 584.3C625.9 583.4 626.4 582.5 627.1 581.6C622.8 578.4 615 578 603.7 580.4C603.5 580.6 603.3 580.6 603 580.6C599.7 581.3 594.6 583 587.5 585.7C587 585.9 586.9 585.7 587 585.1C589.6 581.6 596.2 578.6 606.7 576C607 576.1 607.3 576.1 607.6 575.9C610.5 575.4 614.3 574.9 619 574.4C618.8 573.4 618.4 569 617.8 561.2C609.5 562.4 601.9 565.6 595.1 570.8C594.7 571.2 594.3 571.4 594.1 571.2C593.9 571 593.8 570.7 594 570.2C598.3 562.7 606.1 558.1 617.5 556.3C616.7 543.3 616.8 535.7 617.9 533.5C619.8 530.1 623.7 526.2 629.5 521.7C630.4 520.9 631 520.5 631.3 520.6C631.7 520.9 631.7 521.5 631.3 522.5C629.9 526.3 628.3 530.3 626.6 534.7C624.7 539.7 623.4 544.3 622.8 548.6C622.4 551 622 553.4 621.8 555.7C624.4 555.5 627.5 555.4 630.9 555.3C632.9 555.3 634.8 554.9 636.6 554.1C637.4 553.4 638.1 553.3 638.7 553.7C639.4 554.1 639.7 555.3 639.7 557.4C639.9 560 639.7 561.7 639.2 562.5C638.8 563 638.3 563.5 637.6 563.9C636.9 564.4 633.5 567.4 627.3 572.8C627.1 573.2 626.9 573.4 626.7 573.7C627.8 573 628.7 573.7 629.3 575.8C629.7 577.6 629.7 578.9 629.2 579.6C634.2 574.6 638.6 570 642.3 565.8C642.2 565.7 642.2 565.5 642.1 565.3C641.2 563.8 641 562.8 641.3 562.5C641.8 561.8 643 561.7 645 562C646.6 562 647.8 562.4 648.7 563.2C655.1 568.9 659.9 571.8 663 571.7C664.1 571.7 664.8 572 665.1 572.8C665.2 575.1 665 577.8 664.4 580.8C664.2 581.8 663.4 582.7 662.2 583.6C659.3 585.3 656.3 587.7 653.2 590.6C652.5 591.4 651.7 592.1 650.9 592.7C651.2 592.8 651.5 592.8 651.8 592.7C652.7 592.6 653.8 592.6 655 592.6C655.5 592.6 656.2 592.5 656.9 592.4C657.8 592.1 658.4 592.3 658.5 593C658.8 593.8 659 594.8 659.1 596.1C661.5 594.8 666.4 589.5 673.7 580.4C675.5 577.9 676.7 576.7 677.4 576.8C678.1 577 678.5 577.7 678.5 578.9C678.4 582.8 676.6 586 673.1 588.3C670.8 590.5 667.8 593.1 664.1 596.3C659.9 600.1 655.4 604.3 650.5 609C650.1 609.3 649.7 609.5 649.5 609.4ZM119.6 608.3C119.1 608.3 118.4 608.2 117.5 608.1C116.1 607.7 115.1 607.1 114.5 606.5C113.9 605.8 114.2 605.3 115.2 605C116 604.7 116.7 604.2 117.1 603.5C118.2 601.4 119.2 599.2 120 596.9C119.8 596.8 119.6 596.6 119.3 596.4C116.8 594.1 114.9 592.4 113.6 591.2C113.3 590.8 113.4 590.5 113.8 590.4C114.3 590.1 114.8 590.2 115.3 590.5C117.1 591.5 119 592.6 121 593.6C121.6 591.9 122 590 122.4 587.9C122.4 587.3 122.5 586.9 122.7 586.6C122.9 586.1 123.3 586.1 123.6 586.7C123.9 587.1 124.1 588.1 124.1 589.7C124.1 591 124 592.8 123.8 594.9C125.3 595.7 127 596.5 128.9 597.3C129.8 597.7 130.4 598.1 130.9 598.6C131.1 598.9 131 599.3 130.7 599.8C130.4 600.3 129.3 600.7 127.4 600.9C126.4 601 125.5 600.8 124.7 600.3C124.2 600.1 123.8 599.8 123.4 599.4C123.1 600.7 122.8 602 122.5 603.4C122 604.8 121.8 605.9 121.9 606.7C121.8 607.4 121.4 607.9 120.8 608.1C120.5 608.2 120.2 608.3 119.6 608.3ZM190.5 603.7C190.1 603.6 189.7 603.6 189.3 603.4C186.8 602.4 184.7 601.3 183.2 600.2C181.9 599.1 181 597.8 180.4 596.3C178.1 590.2 174.8 582.3 170.7 572.6C170.4 572.7 170.1 572.8 169.7 572.9C168.5 573 167.3 572.9 166.1 572.6C165.9 575.4 165.7 578.4 165.5 581.6C165.2 585 165.4 587.7 166.1 589.6C166.4 591 166 591.9 164.9 592.1C163.7 592.6 160.8 591.5 156 589C154.7 588.3 153.8 587.1 153.4 585.5C152.2 580.8 150.6 575.1 148.5 568.2C148 566.3 146.5 563.6 143.9 560.2C143 558.8 143.3 558 144.8 557.7C145.9 557.7 147.1 557.9 148.5 558.6C150.8 559.8 152 561.8 152.1 564.6C152.5 566.3 153.8 571.5 156 580.4C156.3 581.4 156.8 582.2 157.7 582.6C158.6 583.1 159.4 582.9 160 582C161.3 578.8 162.7 575.4 164.3 571.8C163.5 571.4 162.6 570.9 161.8 570.2C160.6 569.1 160 568.1 160.1 567.2C160 566.1 160.6 565.8 162 566.2C163.9 566.9 166 567.2 168.2 567.1C163.2 556.7 157.9 545.5 152.2 533.3C151.4 531.9 151.9 531.3 153.8 531.6C155.3 531.9 156.7 532.6 157.8 533.6C159.1 534.7 159.9 536 160.2 537.3C162.6 545.1 165.9 553.1 170 561.2C170.6 562.7 171.4 564.4 172.2 566.1C175.3 564.9 178.1 563.4 180.7 561.6C183.5 559.6 185.6 557.6 186.7 555.7C187.8 553.9 187.5 551.9 185.8 549.9C184.4 548.1 182.9 546.4 181.4 544.8C180.7 544.1 180.8 543.7 181.8 543.7C182.4 543.7 183.4 544.1 184.9 544.8C188.7 546.2 191.6 546.9 193.8 546.8C195.3 546.7 196.3 547.3 196.8 548.4C197.2 549.3 197 551.1 196.3 553.9C195.7 556.5 194.2 558.9 192 561.1C189.4 563.9 185.8 566.4 181.3 568.8C179 569.9 176.9 570.8 175 571.5C178.5 578.1 183 585.8 188.6 594.5C189.8 596.4 190.9 598.2 191.9 599.9C192.8 601.2 193.1 602.2 192.7 602.9C192.3 603.6 191.5 603.8 190.5 603.7ZM133.6 597.1C133.1 597.1 132.5 597 131.7 596.9C130.4 596.5 129.5 596 129 595.3C128.6 594.7 128.8 594.2 129.7 593.8C130.6 593.6 131.3 593.2 131.7 592.5C132.3 591.2 133 589.9 133.8 588.4C131.4 586.8 129.6 585.4 128.4 584.3C128.2 584 128.2 583.8 128.6 583.5C129 583.2 129.5 583.2 130.1 583.5C131.6 584.2 133.2 584.9 135 585.7C135 585.5 135.1 585.4 135.2 585.3C136 582.8 136.8 580.1 137.5 577C137.4 576.4 137.6 576 137.8 575.8C138 575.3 138.3 575.4 138.7 575.9C138.9 576.4 139 577.3 138.9 578.7C139 580.2 138.8 582.1 138.4 584.3C138.2 585 138.1 585.9 138 586.9C139.7 587.5 141.5 588.2 143.6 589C144.5 589.2 145.2 589.7 145.6 590.2C145.8 590.5 145.7 590.8 145.5 591.3C145.3 592 144.2 592.4 142.3 592.6C141.4 592.8 140.5 592.7 139.6 592.3C138.8 592.2 138 591.6 137 590.9C136.8 591.3 136.6 591.9 136.5 592.4C136 593.8 135.8 594.9 135.8 595.8C135.7 596.4 135.3 596.8 134.8 597C134.5 597.1 134.2 597.1 133.6 597.1ZM643.8 595.9C644 595.6 644.3 595.3 644.7 594.9C650.1 590.3 654.7 586.1 658.4 582.4C659.8 581.1 660.3 580 659.8 579C659.2 577.2 654.6 573.6 646.1 568.3C645.6 568.2 645.1 568.1 644.6 567.8C644.6 568.1 644.5 568.5 644.4 568.8C644 569.6 638.5 575.1 627.8 585.2C629.7 586.1 631.3 587.1 632.7 588.1C632.8 587.4 633.8 585.9 635.8 583.6C639.5 580.1 642.7 576.9 645.6 574C646.5 573.1 647.1 573 647.5 573.8C647.8 574.8 647.6 575.9 647 577.2C646.4 578.3 642 582.2 633.8 588.9C635.3 590 636.8 591.1 638.3 592.3C638.2 591.7 638.9 590.3 640.4 588.2C644.3 584.6 647.7 581.5 650.7 578.7C651.6 577.8 652.3 577.8 652.6 578.6C652.9 579.6 652.7 580.7 652 582C651.4 582.8 647.1 586.3 639.1 592.6C639.1 592.7 639.1 592.7 639 592.7C641.3 594.4 642.8 595.5 643.8 595.9ZM621.1 574.2C621.9 574.2 622.9 574.1 624 574C623.9 573.1 624.3 571.8 625.1 570.3C626.2 568.7 628.3 566.9 631.5 564.6C632.5 563.8 632.9 563 632.8 562.3C632.7 561.9 631.2 561.5 628.1 561C626 560.7 623.8 560.7 621.4 560.8C621.3 562.4 621.2 564 621.2 565.5C621.3 569.5 621.3 572.3 621.1 574.2Z"/><path fill="#122e66" fill-rule="evenodd" d="M669.6 198.6L624.3 231.6L632.7 243.1L654.9 235C657.3 234.2 659.8 233.2 662.4 232.2C664.9 231.2 667.6 230.1 670.4 228.9C667.9 230.2 665.5 231.6 663.1 233.1C660.7 234.6 658.1 236.5 655.1 238.7L638.3 250.9L645.5 260.8L690.8 227.9L682.8 216.8L659 225.1C656.5 225.9 654 226.9 651.4 227.9C648.9 229 646.3 230.2 643.6 231.5C647.2 229.3 650.5 227.2 653.6 225.2C656.7 223.2 659.6 221.2 662.1 219.3L676.8 208.6ZM709.3 325.3L711.5 337.7L716 336.9C717.8 336.6 719.2 336.7 720.3 337.2C721.3 337.7 721.9 338.6 722.2 340C722.4 341.2 722.2 342.3 721.5 343.2C720.8 344.1 719.8 344.7 718.4 344.9C717.3 345.1 716 345 714.8 344.5C713.5 343.9 712.2 343.1 710.8 341.8C710.2 341.3 709.3 340.5 708.1 339.4C704.3 335.9 701.4 333.5 699.5 332.3C697.8 331.1 695.9 330.3 693.8 329.9C691.8 329.6 689.6 329.6 687.3 330C682.6 330.8 679.3 332.8 677.2 336.1C675.1 339.4 674.6 343.6 675.5 348.7C676.4 353.8 678.2 357.5 681 359.6C683.8 361.8 687.5 362.5 692.2 361.6L696.7 360.8L694.7 349L690.9 349.7C689.1 350 687.8 349.9 686.8 349.5C685.9 349 685.3 348.1 685.1 346.7C684.9 345.6 685.1 344.7 685.7 343.9C686.3 343 687.2 342.5 688.5 342.3C690.5 342 694.3 344.1 699.7 348.8L700.1 349.1L701 349.9C705.9 354 709.3 356.4 711.2 357C712.5 357.4 713.8 357.7 715.3 357.8C716.7 357.8 718.2 357.7 719.8 357.5C724.6 356.6 728 354.5 730.2 351.1C732.3 347.7 732.9 343.3 732 338C731 332.7 729 328.9 725.8 326.7C722.7 324.4 718.5 323.7 713.4 324.6ZM719.7 291.9L666.5 309.2L670.4 321.3L723.6 303.9ZM682.6 253.2L687.7 264.6L691.9 262.8C693.6 262 695 261.7 696.1 262C697.2 262.2 698.1 263 698.7 264.2C699.2 265.4 699.2 266.5 698.8 267.6C698.3 268.6 697.5 269.4 696.2 269.9C695.1 270.4 693.9 270.6 692.6 270.4C691.2 270.2 689.7 269.7 688.1 268.8C687.3 268.5 686.3 267.9 684.9 267.1C680.3 264.7 677 263.1 674.8 262.3C672.9 261.6 670.9 261.3 668.7 261.4C666.6 261.5 664.5 262.1 662.4 263C658.1 264.9 655.3 267.7 654.1 271.4C652.9 275.1 653.3 279.3 655.5 284.1C657.6 288.8 660.2 291.9 663.5 293.3C666.7 294.7 670.5 294.5 674.8 292.5L679 290.7L674.2 279.7L670.6 281.3C669 282 667.7 282.3 666.6 282C665.6 281.8 664.8 281 664.3 279.8C663.8 278.8 663.8 277.8 664.2 276.9C664.6 275.9 665.4 275.2 666.5 274.7C668.4 273.9 672.6 275 679 278.3L679.4 278.4L680.5 279C686.2 281.8 690.1 283.3 692.1 283.5C693.4 283.6 694.8 283.5 696.3 283.2C697.7 282.9 699.1 282.4 700.6 281.8C705 279.8 707.9 276.9 709.1 273.1C710.3 269.3 709.9 264.9 707.7 259.9C705.5 255 702.6 251.9 699 250.4C695.4 249 691.2 249.4 686.5 251.5ZM638.9 162.9L598.7 201.8L618.4 222.2L626.1 214.7L615.3 203.4L623.3 195.7L632.9 205.6L640.5 198.2L630.9 188.2L639.9 179.5L651.2 191.2L658.9 183.6ZM615.2 141.4L577.8 183.1L587.2 191.6L624.6 149.9ZM558.3 151.5L573.4 128.9C574.4 127.4 575.4 126.5 576.4 126.2C577.4 125.8 578.4 126 579.5 126.8C580.7 127.6 581.2 128.4 581.3 129.5C581.3 130.5 580.9 131.8 579.8 133.3L564.7 155.8C563.7 157.3 562.6 158.2 561.7 158.6C560.7 158.9 559.6 158.7 558.5 157.9C557.4 157.2 556.8 156.3 556.8 155.3C556.8 154.3 557.2 153 558.3 151.5ZM548.8 142.6C545.6 147.4 544.3 151.7 545 155.7C545.8 159.7 548.4 163.2 553 166.3C557.6 169.4 561.8 170.5 565.7 169.7C569.6 168.9 573.2 166.1 576.4 161.3L589.3 142.2C592.5 137.4 593.8 133 593.1 129.1C592.4 125.1 589.8 121.6 585.2 118.4C580.6 115.4 576.3 114.2 572.4 115.1C568.4 115.9 564.9 118.7 561.7 123.5ZM508.5 81.2L487.1 132.9L505.1 140.4L514.2 125C515.4 123 516.5 121 517.7 118.8C518.8 116.6 520 114.2 521.3 111.6C520.2 114.7 519.3 117.5 518.6 119.9C517.8 122.3 517.3 124.2 517 125.5L512.6 143.5L530.5 150.9L551.9 99.2L540.7 94.5L532.8 113.5C531.2 117.4 529.5 121.5 527.9 125.7C526.2 130 524.5 134.3 522.7 138.8C523.9 134 524.9 130 525.6 126.8C526.4 123.5 526.9 121.5 527.1 120.5L533.8 91.7L526.5 88.6L511.4 112.7C509.3 116.1 507.4 119.2 505.7 121.9C504.1 124.7 502.6 127.3 501.1 129.8C502.9 126 504.6 122 506.4 118C508.1 114 509.9 109.6 511.9 105L519.8 85.8ZM453.5 69.3L455.1 126.3L471.9 128.9L490.6 75.1L477.2 73L474.4 82.8L465.8 81.4L466.1 71.3ZM465.7 91.7L471.7 92.6L467.2 109.3C466.9 110.4 466.6 111.6 466.2 112.8C465.9 114.1 465.4 116 464.8 118.6C464.9 117.1 465 115.5 465 113.9C465.1 112.3 465.2 110.6 465.2 108.9ZM388.8 84.2L401.3 83.5L401.1 79C401 77.1 401.3 75.6 401.9 74.7C402.5 73.7 403.5 73.2 404.9 73.1C406.2 73.1 407.2 73.4 408 74.2C408.8 75.1 409.3 76.1 409.3 77.5C409.4 78.6 409.1 79.8 408.5 81C407.8 82.2 406.8 83.5 405.4 84.7C404.8 85.2 403.9 86.1 402.6 87.1C398.7 90.5 396 93 394.5 94.7C393.1 96.3 392.2 98.1 391.5 100.1C390.9 102.1 390.6 104.3 390.7 106.6C391 111.3 392.6 114.9 395.6 117.4C398.6 119.8 402.7 120.9 407.9 120.7C413.1 120.4 416.9 119 419.4 116.5C421.9 114 423 110.3 422.7 105.6L422.5 101L410.5 101.6L410.7 105.5C410.8 107.2 410.6 108.6 410 109.5C409.4 110.3 408.4 110.8 407.1 110.9C405.9 110.9 405 110.6 404.3 109.9C403.6 109.2 403.2 108.2 403.1 107C403 104.9 405.6 101.4 410.9 96.5L411.2 96.2L412.2 95.4C416.8 91.1 419.6 88 420.4 86.2C421 84.9 421.4 83.6 421.7 82.2C422 80.7 422 79.2 422 77.6C421.7 72.8 420 69.1 416.9 66.6C413.8 64 409.5 62.9 404.1 63.2C398.8 63.4 394.8 65 392.2 67.9C389.5 70.7 388.4 74.8 388.6 80ZM337.9 68.9L352.9 123.9L369.8 122.5L375.3 65.7L361.9 66.9L361.5 77L352.8 77.8L350.7 67.8ZM355.1 87.7L361.1 87.2L360.6 104.5C360.6 105.6 360.6 106.8 360.5 108.2C360.5 109.5 360.5 111.5 360.5 114.1C360.3 112.6 360 111.1 359.7 109.5C359.3 107.9 359 106.3 358.7 104.6ZM305.2 77.1L314.6 121.4L306.5 123.1L308.7 133.7L337.2 127.6L335 117L326.9 118.7L317.6 74.5ZM267.1 90.8L288.4 142.7L300.1 137.8L278.8 86ZM231.4 131.8L242 125.1L239.6 121.3C238.6 119.7 238.1 118.3 238.2 117.2C238.3 116 238.9 115.1 240.1 114.4C241.2 113.7 242.3 113.5 243.4 113.8C244.5 114.1 245.4 114.8 246.1 116C246.7 117 247 118.2 247 119.5C247 120.9 246.7 122.5 246.1 124.2C245.8 125 245.4 126.2 244.9 127.7C243.1 132.5 241.9 136.1 241.5 138.3C241 140.3 241 142.4 241.4 144.4C241.9 146.5 242.7 148.5 243.9 150.5C246.4 154.5 249.6 156.8 253.4 157.5C257.2 158.2 261.3 157.2 265.7 154.5C270.1 151.7 272.8 148.7 273.7 145.2C274.7 141.8 273.9 138.1 271.4 134.1L268.9 130.2L258.8 136.5L260.8 139.8C261.8 141.3 262.2 142.6 262.1 143.7C262 144.7 261.4 145.6 260.2 146.3C259.3 146.9 258.3 147.1 257.4 146.8C256.4 146.5 255.6 145.9 254.9 144.8C253.8 143 254.4 138.7 256.7 131.9L256.8 131.5L257.2 130.3C259.2 124.2 260.1 120.2 260 118.2C259.9 116.8 259.6 115.5 259.2 114.1C258.7 112.7 258 111.3 257.2 110C254.6 105.9 251.4 103.5 247.4 102.8C243.4 102.1 239.1 103.2 234.6 106C230 108.9 227.3 112.2 226.4 115.9C225.5 119.7 226.4 123.8 229.2 128.2ZM210.2 163.3C212.4 161.6 214.2 160.7 215.4 160.6C216.6 160.6 217.8 161.2 218.9 162.6L220.9 165.1C222.1 166.5 222.5 167.8 222.2 169C222 170.1 220.8 171.5 218.8 173.2L218.4 173.5ZM179.5 145.2L214.7 188.7L228.7 177.3C232.4 174.4 234.5 171.4 235.1 168.3C235.6 165.3 234.7 162.2 232.2 159.1L231.8 158.7L229.8 156.2C228 154 226.1 152.5 224.2 151.9C222.3 151.3 220.2 151.4 217.7 152.2C219.1 150.1 219.7 148 219.5 146.1C219.3 144.1 218.3 141.9 216.4 139.6L208.2 129.5C207.3 128.3 206.6 127.3 206.2 126.5C205.8 125.7 205.5 124.9 205.4 124.1L195.5 132.2C195.6 132.9 195.9 133.6 196.4 134.4C196.9 135.2 197.7 136.4 198.8 137.7L205.6 146.1C207.5 148.5 208.4 150.4 208.2 151.6C208 153 206.8 154.5 204.6 156.4L189.2 137.3ZM145.7 179.1L186.3 217.7L205.8 197.1L197.9 189.6L187.1 201L179.1 193.3L188.6 183.3L180.8 175.9L171.3 186L162.3 177.3L173.4 165.6L165.5 158.1ZM119.2 215.3L160.6 254.1L168.1 243L150.2 228.3C149.3 227.6 147.5 226.2 144.8 224.1C142 221.9 138.8 219.5 135.2 216.7C139.3 219 144.2 221.7 149.8 224.7C150.8 225.3 151.5 225.6 152 225.9L172.3 236.7L179.6 225.9L128.1 202.1ZM98.6 251L148.9 275.6L154.5 264.2L104.2 239.6ZM78.4 301.8L131.3 320.1L135.9 306.7L116.6 293.1C114.5 291.6 112.3 290 110 288.5C107.7 287 105.2 285.5 102.6 283.9C105.2 285.1 107.7 286.3 110.3 287.4C112.9 288.5 116 289.6 119.4 290.8L139 297.6L143.1 286L90.2 267.7L85.7 280.6L106.1 295.4C108.2 296.9 110.4 298.5 112.8 300C115.1 301.5 117.6 303 120.2 304.4C116.3 302.7 112.7 301.2 109.2 299.8C105.8 298.4 102.6 297.2 99.6 296.1L82.4 290.2ZM124.4 349.3L83.1 344.7C81.3 344.5 80 344 79.3 343.4C78.5 342.7 78.2 341.7 78.4 340.4C78.5 339 79.1 338.1 80 337.6C80.8 337.1 82.2 336.9 84 337.1L125.3 341.8L126.7 329.2L87.4 324.7C81.7 324.1 77.3 325 74.1 327.4C70.9 329.8 69 333.8 68.4 339.2C67.8 344.7 68.8 348.9 71.4 352C73.9 355 78.1 356.9 83.8 357.5L123 361.9"/><path fill="#122e66" fill-rule="evenodd" d="M400 800C620.3 800 800 620.3 800 400C800 179.7 620.3 0 400 0C179.7 0 0 179.7 0 400C0 620.3 179.7 800 400 800ZM400 765.5C601.3 765.5 765.5 601.3 765.5 400C765.5 198.7 601.3 34.5 400 34.5C198.7 34.5 34.5 198.7 34.5 400C34.5 601.3 198.7 765.5 400 765.5ZM400 757.4C596.9 757.4 757.4 596.9 757.4 400C757.4 203.1 596.9 42.6 400 42.6C203.1 42.6 42.6 203.1 42.6 400C42.6 596.9 203.1 757.4 400 757.4ZM400 647.9C536.5 647.9 647.9 536.5 647.9 400C647.9 263.5 536.5 152.1 400 152.1C263.5 152.1 152.1 263.5 152.1 400C152.1 536.5 263.5 647.9 400 647.9ZM400 640.9C532.7 640.9 640.9 532.7 640.9 400C640.9 267.3 532.7 159.1 400 159.1C267.3 159.1 159.1 267.3 159.1 400C159.1 532.7 267.3 640.9 400 640.9ZM400 781.7C610.3 781.7 781.7 610.3 781.7 400C781.7 189.7 610.3 18.3 400 18.3C189.7 18.3 18.3 189.7 18.3 400C18.3 610.3 189.7 781.7 400 781.7"/><path fill="#122e66" fill-rule="evenodd" d="M456.2 489.1L456.2 500.7L462.4 500.7L462.4 489.1L474.8 489.1L474.8 500.7L481.3 500.7L481.3 483.1L432.3 483.1L432.3 492.8L436.9 492.8L436.9 500.7L443.8 500.7L443.8 489.1ZM401.2 460.9C403.4 460.8 405.6 460.3 407.6 459.6L410.2 466.6C407.5 467.5 404.7 468.1 401.8 468.3L401.2 468.3ZM410.5 458.4C412.3 457.5 414.1 456.3 415.6 455L421 460.4C418.6 462.5 416 464.2 413.1 465.5ZM417.8 452.8C418.8 451.8 419.6 450.7 420.4 449.5L428.3 451.6C426.9 454.1 425.2 456.3 423.3 458.3ZM421.9 446.7C422.7 445.1 423.3 443.5 423.7 441.7L431.2 441.7L431.2 443.9C431.2 445.5 430.3 447.8 429.8 448.8ZM421.3 436.3C421.3 449.8 410.2 458.1 399.5 458.1C388.9 458.1 377.7 449.7 377.7 436.3L377.7 405.9L421.3 405.9ZM375.4 441.7C375.8 443.4 376.4 445.1 377.1 446.7L369.3 448.8C368.8 447.7 367.8 445.5 367.8 443.9L367.8 441.7ZM378.7 449.4C379.4 450.6 380.2 451.7 381.1 452.7L375.6 458.1C373.7 456.2 372.1 454 370.7 451.6ZM383.3 454.9C384.8 456.2 386.5 457.3 388.3 458.3L385.8 465.3C382.9 464 380.2 462.3 377.9 460.3ZM391.2 459.5C393.4 460.3 395.7 460.8 398.1 460.9L398.1 468.3L397.3 468.3C394.3 468.1 391.4 467.5 388.6 466.5ZM414 468.3C419.4 465.9 424.2 462.2 427.8 457.6L427.8 468.3ZM430.7 453.4C431.9 451.4 432.9 449.3 433.7 447L440.6 447L440.6 453.4ZM365.4 447C366.2 449.3 367.2 451.4 368.3 453.4L358.5 453.4L358.5 447ZM371.1 457.4C374.7 462.1 379.5 465.8 385.1 468.3L371.1 468.3ZM431.2 438.6L424.4 438.6L424.4 432.8L431.2 432.8ZM431.2 429.7L424.4 429.7L424.4 423.8L431.2 423.8ZM431.2 420.7L424.4 420.7L424.4 414.9L431.2 414.9ZM431.2 411.8L424.4 411.8L424.4 405.9L431.2 405.9ZM374.6 438.6L367.8 438.6L367.8 435.2L367.9 435.2L367.9 432.8L374.6 432.8ZM374.6 429.7L367.8 429.7L367.8 423.8L374.6 423.8ZM374.6 420.7L367.9 420.7L367.9 418.2L367.8 418.2L367.8 414.9L374.6 414.9ZM374.6 411.8L367.8 411.8L367.8 405.9L374.6 405.9ZM356.2 432.1L356.2 421.3L364.7 421.3L364.7 432.1ZM353.2 421.3L353.2 432.1L341.8 432.1L341.8 421.3ZM350.5 418.2L350.5 405.9L364.7 405.9L364.7 418.2ZM347.4 405.9L347.4 418.2L341.8 418.2L341.8 405.9ZM350.5 443.9L350.5 435.2L364.7 435.2L364.7 443.9ZM347.4 435.2L347.4 443.9L341.8 443.9L341.8 435.2ZM355.4 447L355.4 453.4L341.8 453.4L341.8 447ZM368 456.5L368 468.3L350.5 468.3L350.5 456.5ZM347.4 456.5L347.4 468.3L331.2 468.3L331.2 456.5ZM328.1 456.5L328.1 468.3L318.6 468.3L318.6 456.5ZM481.3 468.3L470.8 468.3L470.8 456.5L481.3 456.5ZM467.7 468.3L451.5 468.3L451.5 456.5L467.7 456.5ZM448.4 468.3L430.9 468.3L430.9 456.5L448.4 456.5ZM318.6 471.4L325.1 471.4L325.1 480L318.6 480ZM328.2 471.4L340 471.4L340 480L328.2 480ZM343.1 471.4L353.1 471.4L353.1 480L343.1 480ZM356.1 471.4L377.2 471.4L377.2 480L356.1 480ZM380.3 471.4L398.1 471.4L398.1 480L380.3 480ZM401.2 471.4L418.9 471.4L418.9 480L401.2 480ZM422 471.4L443 471.4L443 480L422 480ZM446.1 471.4L456 471.4L456 480L446.1 480ZM459.1 471.4L470.9 471.4L470.9 480L459.1 480ZM474 471.4L481.3 471.4L481.3 480L474 480ZM460.7 453.4L460.7 402.8L338.7 402.8L338.7 453.4L315.5 453.4L315.5 503.8L328.2 503.8L328.2 492.2L334.4 492.2L334.4 503.8L346.8 503.8L346.8 492.2L353.1 492.2L353.1 503.8L356.1 503.8L356.1 503.8L362.3 503.8L362.3 529.8L375.6 529.8L375.6 517.8L382.8 517.8L382.8 529.8L396.1 529.8L396.1 517.8L403.2 517.8L403.2 529.8L416.5 529.8L416.5 517.8L423.6 517.8L423.6 529.8L436.9 529.8L436.9 503.8L443.8 503.8L443.8 503.8L446.9 503.8L446.9 492.2L453.1 492.2L453.1 503.8L465.5 503.8L465.5 492.2L471.7 492.2L471.7 503.8L484.4 503.8L484.4 453.4L460.7 453.4ZM457.6 453.4L443.7 453.4L443.7 447L457.6 447ZM362.3 500.7L356.1 500.7L356.1 489.1L353.1 489.1L353.1 489.1L346.8 489.1L346.8 489.1L343.8 489.1L343.8 500.7L337.5 500.7L337.5 489.1L325.1 489.1L325.1 500.7L318.6 500.7L318.6 483.1L366.9 483.1L366.9 492.8L362.3 492.8ZM370 483.1L370 492.8L387.7 492.8L387.7 483.1ZM390.8 483.1L390.8 492.8L408.5 492.8L408.5 483.1ZM411.6 483.1L411.6 492.8L429.2 492.8L429.2 483.1ZM434.3 405.9L448.7 405.9L448.7 418.2L434.3 418.2ZM451.8 405.9L457.6 405.9L457.6 418.2L451.8 418.2ZM433.8 526.7L433.8 510.9L365.4 510.9L365.4 526.7L372.5 526.7L372.5 514.7L385.8 514.7L385.8 526.7L393 526.7L393 514.7L406.3 514.7L406.3 526.7L413.4 526.7L413.4 514.7L426.7 514.7L426.7 526.7ZM365.4 495.9L365.4 507.8L379.1 507.8L379.1 495.9ZM382.2 495.9L382.2 507.8L398.7 507.8L398.7 495.9ZM401.7 495.9L401.7 507.8L418.2 507.8L418.2 495.9ZM421.3 495.9L421.3 507.8L433.8 507.8L433.8 495.9ZM457.6 421.3L457.6 432.1L446 432.1L446 421.3ZM457.6 435.2L457.6 443.9L451.8 443.9L451.8 435.2ZM442.9 432.1L442.9 421.3L434.3 421.3L434.3 432.1ZM448.7 443.9L448.7 435.2L434.3 435.2L434.3 443.9"/><path fill="#122e66" fill-rule="evenodd" d="M276.3 520.8L276.3 516L362.5 516L362.5 520.8ZM436.7 520.8L436.7 516L523.3 516L523.3 520.8ZM279.8 469.8L279.8 465L316.5 465L316.5 469.8ZM483.8 469.8L483.8 465L519.9 465L519.9 469.8ZM282.3 430L282.3 425.3L338.9 425.3L338.9 430ZM377.5 430L377.5 425.3L421.5 425.3L421.5 430ZM460.5 430L460.5 425.3L517.3 425.3L517.3 430ZM371 403.6L349 381.7L292.3 381.7L292.3 376.9L507.4 376.9L507.4 381.7L448.1 381.7L426.1 403.6L419.4 403.6L441.4 381.7L355.7 381.7L377.7 403.6Z"/><path fill="#122e66" fill-rule="evenodd" d="M485.3 571.7L492.2 557.5L507.8 555.4L496.4 544.4L499.2 528.9L485.3 536.4L471.4 528.9L474.2 544.4L462.8 555.4L478.4 557.5ZM399.3 374.8L406.2 360.6L421.8 358.4L410.4 347.5L413.2 332L399.3 339.4L385.4 332L388.2 347.5L376.8 358.4L392.4 360.6ZM399.3 364.9L403.3 356.7L412.2 355.5L405.7 349.2L407.3 340.3L399.3 344.6L391.3 340.3L392.9 349.2L386.4 355.5L395.4 356.7ZM314.4 571.7L321.3 557.5L336.9 555.4L325.5 544.4L328.3 528.9L314.4 536.4L300.5 528.9L303.3 544.4L291.9 555.4L307.6 557.5ZM314.4 561.8L318.4 553.7L327.3 552.5L320.8 546.2L322.4 537.2L314.4 541.5L306.4 537.2L308 546.2L301.5 552.5L310.5 553.7ZM485.3 561.8L489.2 553.7L498.2 552.5L491.7 546.2L493.3 537.2L485.3 541.5L477.3 537.2L478.9 546.2L472.4 552.5L481.4 553.7"/><path fill="#122e66" fill-rule="evenodd" d="M326.2 277.7C325.5 277.7 325.2 277.3 325.4 276.6C325.5 275.9 325.4 275.4 325.2 275C325.1 274.9 324.9 274.6 324.6 274.1C323.5 273 322.8 272.1 322.4 271.6C321.8 271 321.6 270.7 321.7 270.7C321.9 270.6 322.4 270.8 323.2 271.4C323.6 271.6 324.5 272.2 326.1 273C327.1 273.6 327.8 274 328.1 274.2C328.3 274.4 328.8 274.6 329.4 274.9C330.3 275.3 330.6 275.7 330.4 276C329 277.2 327.6 277.7 326.2 277.7ZM381.4 280.5C381.3 280.5 381.1 280.5 380.9 280.3C377.7 279.1 372.1 278 364.1 277.2C361.9 277 361.7 276.6 363.6 276.1C365.5 275.9 367.5 275.9 369.4 276.2C370.1 275.3 369.9 273.9 368.9 272C367 268.8 364.9 266.7 362.7 265.9C362.3 265.7 362.1 265.6 361.9 265.5C361.6 264.8 361.5 264 361.7 262.9C361.9 262.2 362.2 261.8 362.7 261.8C362.7 261.8 363.2 262 364.3 262.3C365.9 262.7 371.4 264.3 381 267C381.2 266.9 381.3 266.8 381.4 266.7C383 265 384 264.4 384.6 264.6C385.9 265.9 385.7 267.6 384.2 269.5C383.1 270.6 381.4 271.5 378.9 272.2C376.6 272.8 375.9 272.6 376.8 271.7C377.7 270.8 378.8 269.6 380.1 268C373.9 266.9 369.1 266 365.6 265.5C367.3 267 369.6 269.4 372.5 272.6C372.8 272.8 373 273.1 373.4 273.4C375.2 274.4 374.9 275.5 372.5 276.6C377.7 277.4 381.4 278 383.5 278.4C384.7 278.8 385.1 279.3 384.5 280C384 280.4 383 280.6 381.4 280.5ZM434.3 281.1C433.7 281 433.6 280.6 434.1 280C434.6 279.4 434.6 278 433.8 275.8C431.9 268.1 429.3 262.7 426.2 259.6C425.2 258.4 425.4 258.3 426.8 259C430.4 261.6 433.3 266.1 435.5 272.3C436.3 271.1 437.6 268.8 439.5 265.1C440.4 263.6 441 262.5 441.3 261.9C441.7 260.1 443.8 259.4 447.4 259.8C447.8 259.8 448.1 259.7 448.3 259.7C449.5 259.8 450.3 259.9 450.7 260.2C451.1 260.4 450.9 260.6 450.2 260.9C444.4 264.4 440.7 267.6 438.9 270.6C437.6 272.2 436.7 273.2 436.1 273.7C436.6 275.4 437.1 276.8 437.8 278C437.9 278.3 438 278.6 438 278.9C437.6 279.6 436.3 280.4 434.3 281.1ZM481.2 257.7C482.2 257.4 484.1 257.3 486.6 257.4C488.3 257.3 489.4 257.2 489.9 257.2C491.4 257 492.1 257.3 492.2 258C492.2 259 491.5 259.6 490.2 259.9C489.4 260 487.8 259.9 485.6 259.7C483.8 259.4 482.3 259.3 481.3 259.3C481.8 263.4 482.4 266.4 482.9 268.3C483.1 269 483.3 269.6 483.5 270.2C483.7 270.7 483.8 271 483.8 271.3C483.4 272.6 481.6 273.5 478.7 274.1C477.9 273.9 477.8 273.3 478.4 272.1C478.8 271.2 479 270.4 479.1 269.8C479.4 266 478.5 257.2 476.4 243.5L469.5 243.8C469.5 244.9 469.5 246.3 469.6 248.2C469.8 252.9 470 255.8 470.2 256.9C470.3 257.4 470.4 258 470.6 258.7C470.8 259.2 470.9 259.5 470.8 259.8C469.9 260.9 468.4 261.7 466.3 262.3C465.4 262.4 465.4 261.8 466.1 260.5C466.6 259.6 466.9 258.9 466.9 258.4C467.2 255.9 467.2 251.1 466.7 243.9C463.9 243.8 461.1 243.8 458.3 244.2C456.8 244.2 456.3 244 456.6 243.6C457.3 243.2 458.5 242.7 460.3 242.3C466.1 242.5 472.1 242.4 478.4 242C481.3 241.8 484.2 241.5 487.1 241C489.9 240.7 492.5 240.2 495 239.7C497.1 239.4 497.9 239.8 497.6 241.1C496.8 242.5 495.4 243.4 493.5 243.7C492.9 243.8 491.1 243.8 488.2 243.6C484.2 243.6 481.2 243.6 479.2 243.6ZM418.7 278.8C420.6 276.2 422.3 274.7 423.7 274.3C425.6 274.9 425.8 276 424.4 277.8C420.3 279.8 418.4 280.2 418.7 278.8ZM425.4 271C425.1 271 424.3 270.8 422.8 270.6C417.4 269.4 412.4 268.9 407.7 269C406.9 268.9 406.8 268.6 407.5 268.1C408.4 267.2 409.4 266.6 410.5 266.3C410.9 266.3 413 266.8 417 267.8C417.3 262.8 413.8 257.1 406.4 250.8C405.4 250.1 405.4 249.9 406.4 250.1C407.3 250.3 408.3 250.8 409.4 251.6C413.7 254.4 416.7 257.9 418.3 262C418.5 262 418.7 262 419.1 261.8C420.6 261.1 421.4 260.6 421.5 260.4C421.7 259.5 421.3 257.8 420.3 255.2C419.4 252.7 418.6 251.3 417.9 250.9C417.8 250.9 417.3 251.1 416.3 251.4C414.5 252.1 413.9 252.2 414.3 251.7C415.4 250.4 416 249.1 416.3 247.7C416.3 247.5 416.3 247.4 416.5 247.3C417.4 246.9 418.5 247.3 419.8 248.4C420.8 249.6 421.7 251.3 422.5 253.6C423.3 256.5 424.2 258.6 425 259.9C425.1 260.2 425.2 260.5 425.2 260.6C424.8 261.6 424 262.3 422.9 262.9C422.7 262.9 422.4 263 422 263.1C421.1 263.2 420.2 263.3 419.3 263.4C419.5 263.8 419.7 264.2 420.1 264.7C420.5 265.3 420.7 265.7 420.5 265.9C420.7 266.2 419.9 266.8 418.1 267.9C421.4 268.4 424.2 268.7 426.5 268.7C427.7 268.7 428.2 269 428.1 269.7C427.6 270.5 426.7 270.9 425.4 271ZM432.1 259.1C432.2 259 432.3 258.7 432.6 258.4C434.6 255.8 436 254.6 436.6 254.7C438.3 255.5 438.6 256.7 437.5 258.3C433.6 260 431.7 260.2 432.1 259.1ZM430.6 251.3C433.2 247.7 435.3 245.4 437.1 244.6C439 245.4 439.2 246.8 437.7 249C436.7 249.8 434.9 250.6 432.4 251.6C430.7 252.1 430.1 252 430.6 251.3ZM376.3 256C378.1 256.2 380.1 256.5 382.1 257C383.9 257.2 384.8 257.6 384.8 258.3C384.6 259 383.7 259.3 382 259.2C381.6 259.2 381.1 259.1 380.4 258.9C379.6 258.9 378.3 258.6 376.4 258.2C376.3 259.1 376.5 260.1 376.8 261.1C376.9 261.5 376.9 261.8 376.7 262C374.6 263.1 373 263.7 371.9 263.6C371.4 263.6 371.4 263.1 372 262.1C372.8 260.6 373.2 259.1 373.3 257.5C372.2 257.3 370.8 257 369 256.7C366.9 256.3 365.8 256.2 365.7 256.2C363.9 255.7 364.2 255.3 366.7 254.9C368.6 254.8 370.9 255 373.4 255.5L373.9 249.3C369 248.5 364.3 247.9 359.8 247.5C359.1 247.3 358.5 247.2 358.2 247.2C356.5 247 355.8 246.7 356.2 246.4C356.8 246.1 358.1 245.9 360.1 245.6C360.2 245.6 360.6 245.7 361.3 245.9C371.4 248 381.9 248.8 392.6 248.4C394.7 248.4 395.4 249 394.7 250.2C393.8 251.4 392.2 252 389.8 252.1C389.5 252.1 388.8 252 387.8 251.8C384.7 251.2 381 250.5 376.6 249.8ZM312.9 274.3C312.3 274.4 312.1 274.1 312.4 273.4C312.8 272.6 313.5 271.8 314.6 271C315.2 270.3 315.8 270.1 316.3 270.4C316.9 270.7 317.1 271.3 317.1 272.1C316.6 273.5 315.2 274.3 312.9 274.3ZM322.4 263.2C325.4 263.6 327.4 264 328.4 264.5C329.4 265.2 328.7 265.6 326.4 265.5C326 265.5 325.3 265.4 324.3 265.2C323.5 264.9 322.9 264.7 322.4 264.6C322.4 264.9 322.5 265.2 322.7 265.7C322.8 266.1 322.8 266.4 322.8 266.6C322.8 267 322.4 267.3 321.8 267.8C325.9 268.6 328.6 269.2 329.9 269.5C330.6 269.8 330.7 270.2 330.3 270.8C329.8 271.1 329 271.2 328 271.1C327.9 271.1 327.5 271 326.8 270.8C322.5 269.5 317.6 268.5 312 267.8C311 267.6 310.9 267.3 311.8 266.9C312.5 266.6 313.5 266.5 314.9 266.6C315.8 266.7 316.8 266.9 317.9 267.1C318.5 266.5 319 265.5 319.3 264C317.7 263.7 316 263.3 314.2 263.1C313.5 262.7 313.9 262.3 315.3 262.1C316.4 262.1 317.8 262.3 319.6 262.7L319.9 259.7C316 259 313.1 258.6 311.2 258.4C310.3 258.1 310.4 257.8 311.3 257.4C312 257.2 313.3 257.2 315 257.4C316.4 257.5 317.6 257.7 318.6 257.9C319.2 258 319.7 258.1 320 258.2L320.4 251.7C320 251.7 319.5 251.6 318.8 251.4C310.1 250.2 304.8 249.6 303.1 249.5C302.3 249.5 302.1 249.2 302.6 248.8C303.5 248.1 304.5 247.5 305.6 247.3C305.7 247.3 306.1 247.4 306.9 247.6C310.1 248.9 317.6 250.3 329.5 251.8C332.5 252.1 336.2 252.1 340.5 252C340.8 252.1 341 252.1 341 252.1C342.3 252.3 342.3 252.9 341.2 254C340.1 254.9 338.7 255.2 337.2 255.1C336.7 255 335.1 254.7 332.6 254.2C330.5 253.6 329.2 253.3 328.5 253.3C330.1 254.8 331.2 256 331.9 256.7C332.3 257.2 332.1 257.6 331.4 257.9C330.3 258.4 329.3 258.5 328.2 258.3C327.8 258.3 327.7 258 327.9 257.4C328.2 256.8 328.3 256.2 328.3 255.9C327.8 254.7 327.2 253.6 326.6 252.8L322.8 252.1L322.6 258.4C323.5 258.6 324.9 258.8 326.8 259.1C329.4 259.5 331.1 259.9 331.9 260C332.8 260.4 333 260.7 332.5 261.1C331.9 261.4 330.9 261.5 329.5 261.4C329.3 261.4 328.6 261.3 327.3 261C325.6 260.8 323.9 260.5 322.5 260.3ZM316.6 254.9C316 255.5 314.9 255.9 313.2 256C312.6 255.9 312.7 255.4 313.4 254.3C314.3 252.8 315.1 252.1 315.6 252C316.9 252.6 317.2 253.5 316.6 254.9ZM328.9 248.9C328.5 248.9 327.2 248.6 325.1 248.1C321.5 247.2 318.5 246.5 316 245.9C315.1 246.5 314.3 246.8 313.5 246.6C312.9 246.4 313 246 313.6 245.4C314 244.8 314.4 243.6 314.9 241.8C315.3 240.6 315.6 239.5 315.9 238.6C316.4 237.6 316.9 237 317.5 236.9C317.9 237.1 318 237.7 317.8 238.7C318.2 238.8 319.6 238.9 322 239.3C327.2 240.1 330.6 240.5 332.2 240.7C332.6 240.8 332.7 241 332.3 241.4C331.9 241.8 331.4 242.1 330.6 242.3C331.4 244.1 332.4 245.3 333.6 246C334.2 246.4 333.9 247 332.8 247.7C331.3 248.5 330 248.9 328.9 248.9ZM316.4 244.9C316.7 244.9 317.4 245 318.7 245.3C322 246 325.1 246.5 328 246.8C328.5 246.8 328.7 246.2 328.7 245.1C328.5 243.7 328.2 242.6 327.7 241.8L317.6 239.8"/><path fill="#122e66" fill-rule="evenodd" d="M512.5 284C517.8 289.8 519.4 294.8 519.4 299.5C519.5 305 516.6 308 513.9 311.2C511 314.7 508.2 318.3 506.5 322.6C505.3 325.8 505.8 331 507.4 336.3C510.7 346.8 521 353.9 530.8 353.9L555.1 353.9L555.2 366.5C555.4 374.2 551.4 380.7 548.4 387.8C546.3 392.9 545.1 398.3 545.2 404L545.7 434.4L545.9 434.4C548.6 429.9 551.4 425.5 554.2 421.2C557.6 426.8 566.4 430.9 576.7 430.9C590 430.9 600.8 424.1 600.8 415.8C600.8 411.2 597.5 407.1 592.4 404.3L592.4 372.6L592.4 372.6C594.5 370 596.5 367.3 598.2 364.6C601.9 358.6 603.8 351.6 602.5 344.5C599.2 326.5 568.8 308.7 568.4 290C568.3 286.2 568.6 277.5 568.2 270.9C568 267.9 568 265.4 567.3 263.9C565.8 261.1 563 260.5 560.2 261.1C554.2 262.4 546.1 270.9 540.6 269.4C535.7 268.1 534.3 263.4 533.5 258.7C532.2 251.6 530.3 244.6 527.1 237.9C524 231.6 520.4 226.8 517.5 223.4C515.4 221 513.5 219.8 511.3 219.1C509.1 218.4 506.5 218.3 503.2 219.2C437.9 237.9 362 237.9 296.8 219.2C293.5 218.3 290.9 218.4 288.7 219.1C286.5 219.8 284.6 221 282.5 223.4C279.6 226.8 276 231.6 273 237.9C269.7 244.6 267.8 251.6 266.5 258.7C265.7 263.4 264.3 268.1 259.4 269.4C253.9 270.9 245.8 262.4 239.8 261.1C237 260.5 234.2 261.1 232.7 263.9C232 265.4 232 267.9 231.8 270.9C231.4 277.5 231.7 286.2 231.6 290C231.2 308.7 200.8 326.5 197.5 344.5C196.2 351.6 198.1 358.6 201.8 364.6C203.5 367.3 205.5 370 207.6 372.6L207.6 372.6L207.6 404.3C202.5 407.1 199.2 411.2 199.2 415.8C199.2 424.1 210 430.9 223.3 430.9C233.6 430.9 242.4 426.8 245.8 421.2C248.6 425.5 251.4 429.9 254.1 434.4L254.3 434.4L254.8 404C254.9 398.3 253.7 392.9 251.6 387.8C248.7 380.7 244.6 374.2 244.8 366.5L244.9 353.9L269.2 353.9C279 353.9 289.3 346.8 292.6 336.3C294.2 331 294.7 325.8 293.5 322.6C291.8 318.3 289 314.7 286.1 311.2C283.4 308 280.5 305 280.6 299.5C280.6 294.8 282.3 289.7 287.5 283.9C368.2 301.3 431 301.4 512.5 284ZM502.6 224.5C504.9 223.8 507.3 223.6 508.3 227.2C512.9 240.2 507.4 256.5 507.9 269.5C508 273 508.6 276.2 509.9 279.1C434.6 296.1 365.7 296.1 290.1 279.1C291.4 276.2 292 273 292.1 269.5C292.6 256.5 287.1 240.2 291.7 227.2C292.7 223.6 295.1 223.8 297.4 224.5C362.7 242.4 437.3 242.4 502.6 224.5ZM287.7 225.1C284.6 231.3 284.7 240.1 285.5 248.9C286.3 258 287.8 267.1 286.6 273.4C285.8 277.8 283.7 279.4 281.3 282.8C275.5 291 272.2 301.9 278.7 310.3C283 315.8 289 320.5 289 326.1C289.1 332.4 287.4 345.4 273.1 348.3L242.8 348.5C241.6 343 240.3 329.4 243.2 324.5C247.8 316.6 253.6 306.9 254.2 295.3L254.8 273.5C255.1 273.6 255.4 273.7 255.7 273.8C255.7 273.8 264.2 277.1 268.5 268.2C271.4 262.3 271.5 254.6 273.6 248.2C275.4 242.5 278.4 236.4 282.1 231.6C283.2 230.1 286.4 225.6 287.7 225.1ZM239.7 349.6C239.7 351.9 239.9 363.8 240.2 370C240.5 376.2 244.3 381.9 246.9 388C248.7 392.3 249.6 396.9 250 401.8C250.6 407.6 250.4 413.8 250.4 420.6C250.4 420.6 241.4 405.6 228.4 389.2C221.7 380.8 211.4 371.8 206 363C202.8 357.8 199.1 348.3 203.5 340.1C204.8 337.7 206.4 335.5 208.1 333.2L208 333.4C208 333.4 227.1 333.3 239.7 349.6ZM211.9 328.6C222 317.1 234.9 306 236.2 289.9C236.3 287.1 235.5 268.3 237.1 266.6C237.9 265.9 239.4 265 241.7 266.3C241.7 266.3 245.9 269.3 250.6 271.7C250.4 275.5 250.2 284.4 249.7 294.1C249.3 301.7 246.4 310.8 241.7 317.7C237.4 323.9 236.2 332.4 237 339.5C237 339.5 224.5 330.8 211.9 328.6ZM212.7 378.4C217.7 383.9 223 389.2 227.4 394.8C229.6 397.5 231.6 400.2 233.6 403L212.7 403ZM237.3 408.2C239.2 410.9 241 413.7 242.8 416.4C242.1 422.2 233.3 426.7 223.3 426.7C213 426.7 203.8 421.8 203.8 415.8C203.8 412.9 205.8 410.3 209.1 408.3C210.3 407.8 211.5 407.6 212.7 407.5L235.5 407.5C236.3 407.5 236.6 407.9 237.3 408.2ZM512.3 225.1C515.4 231.3 515.3 240.1 514.5 248.9C513.7 258 512.2 267.1 513.4 273.4C514.2 277.8 516.3 279.4 518.7 282.8C524.5 291 527.8 301.9 521.3 310.3C517 315.8 511 320.5 511 326.1C510.9 332.4 512.6 345.4 526.9 348.3L557.2 348.5C558.4 343 559.7 329.4 556.8 324.5C552.2 316.6 546.4 306.9 545.8 295.3L545.2 273.5C544.9 273.6 544.6 273.7 544.3 273.8C544.3 273.8 535.8 277.1 531.5 268.2C528.6 262.3 528.5 254.6 526.4 248.2C524.6 242.5 521.6 236.4 517.9 231.6C516.8 230.1 513.6 225.6 512.3 225.1ZM560.3 349.6C560.3 351.9 560.1 363.8 559.8 370C559.6 376.2 555.7 381.9 553.1 388C551.3 392.3 550.4 396.9 550 401.8C549.4 407.6 549.6 413.8 549.6 420.6C549.6 420.6 558.6 405.6 571.6 389.2C578.3 380.8 588.6 371.8 594 363C597.2 357.8 600.9 348.3 596.5 340.1C595.2 337.7 593.6 335.5 591.9 333.2L592 333.4C592 333.4 572.9 333.3 560.3 349.6ZM588.1 328.6C578 317.1 565.1 306 563.8 289.9C563.7 287.1 564.5 268.3 562.9 266.6C562.1 265.9 560.6 265 558.3 266.3C558.3 266.3 554.1 269.3 549.5 271.7C549.6 275.5 549.8 284.4 550.3 294.1C550.7 301.7 553.6 310.8 558.3 317.7C562.6 323.9 563.8 332.4 563 339.5C563 339.5 575.5 330.8 588.1 328.6ZM587.3 378.4C582.3 383.9 577 389.2 572.6 394.8C570.4 397.5 568.4 400.2 566.4 403L587.3 403ZM562.7 408.2C560.8 410.9 559 413.7 557.2 416.4C557.9 422.2 566.7 426.7 576.7 426.7C587.1 426.7 596.2 421.8 596.2 415.8C596.2 412.9 594.2 410.3 590.9 408.3C589.7 407.8 588.5 407.6 587.3 407.5L564.5 407.5C563.8 407.5 563.4 407.9 562.7 408.2"/><path fill="#122e66" fill-rule="evenodd" d="M311.8 594L247.8 538.4C265.6 536.3 277.4 517 277.5 500.3L277.6 461.7C277.7 427.2 278.9 366.1 316.5 350.9C323.3 348.2 358.1 340 374.9 331.8C394.9 321.2 397.1 312.7 400 311.1C402.9 312.7 405 321.2 424.9 331.8C441.7 340 476.6 348.2 483.3 350.9C520.9 366.1 522.2 427.2 522.2 461.7L522.4 500.3C522.4 517 534.3 536.3 552 538.4L488.1 594C457.7 575.1 437.2 566.4 400 566.4C362.7 566.4 342.1 575.1 311.8 594ZM312.7 585.6C341.2 567.9 365.1 560.4 400 560.4C434.9 560.4 458.7 567.9 487.1 585.6L539.6 541C538.4 541.2 525.1 534.2 518.8 514.7C516.2 506.9 516 497.2 516.1 487.4C516.3 478.2 515.9 469 516 461.1C515.5 429.1 515.3 372 480.8 356.8C474.5 354.2 441.3 346.6 425.4 338.9C406.3 329.5 403.5 324 400 321.7C396.4 324 393.6 329.5 374.4 338.9C358.6 346.6 325.4 354.2 319 356.8C284.5 372 284.3 429.1 283.8 461.1C283.9 469 283.6 478.2 283.7 487.4C283.8 497.2 283.6 506.9 281.1 514.7C274.8 534.2 261.4 541.2 260.2 541Z"/></g></svg>